HIERARCHY
ROOT Hips
{
   OFFSET 0.00000 0.00000 0.00000
   CHANNELS 6 Xposition Yposition Zposition Zrotation Xrotation Yrotation
   JOINT RightUpLeg
   {
      OFFSET -9.840380 -9.533777 0.111817
      CHANNELS 3 Zrotation Xrotation Yrotation
      JOINT RightLeg
      {
         OFFSET 0.000000 -48.864969 1.509970
         CHANNELS 3 Zrotation Xrotation Yrotation
         JOINT RightFoot
         {
            OFFSET 0.278904 -46.301641 -1.606649
            CHANNELS 3 Zrotation Xrotation Yrotation
            JOINT RightToes
            {
               OFFSET 0.044000 -4.856599 9.349010
               CHANNELS 3 Zrotation Xrotation Yrotation
               End Site
               {
                  OFFSET -0.088000 -0.151193 10.757769
               }
            }
         }
      }
   }
   JOINT Spine
   {
      OFFSET 0.000000 13.079551 0.000000
      CHANNELS 3 Zrotation Xrotation Yrotation
      JOINT Spine1
      {
         OFFSET 0.000000 28.223142 0.140429
         CHANNELS 3 Zrotation Xrotation Yrotation
         JOINT HEad
         {
            OFFSET 0.000000 9.607577 0.012475
            CHANNELS 3 Zrotation Xrotation Yrotation
            End Site
            {
               OFFSET -0.319000 14.051621 2.765345
            }
         }
         JOINT LeftShoulder1
         {
            OFFSET 9.889000 -0.398477 -0.242000
            CHANNELS 3 Zrotation Xrotation Yrotation
            JOINT LeftArm
            {
               OFFSET 11.310971 -0.003718 0.354335
               CHANNELS 3 Zrotation Xrotation Yrotation
               JOINT LeftForeArm
               {
                  OFFSET 36.043591 0.109058 -1.566774
                  CHANNELS 3 Zrotation Xrotation Yrotation
                  JOINT LeftHand
                  {
                     OFFSET 30.320732 0.093898 1.124376
                     CHANNELS 3 Zrotation Xrotation Yrotation
                     End Site
                     {
                        OFFSET 18.418731 -0.660000 1.653201
                     }
                  }
               }
            }
         }
         JOINT RightShoulder
         {
            OFFSET -9.889000 -0.398477 -0.242000
            CHANNELS 3 Zrotation Xrotation Yrotation
            JOINT RightArm
            {
               OFFSET -11.310971 -0.003718 0.354335
               CHANNELS 3 Zrotation Xrotation Yrotation
               JOINT RightForeArm
               {
                  OFFSET -36.186809 0.109058 -1.566774
                  CHANNELS 3 Zrotation Xrotation Yrotation
                  JOINT RightHand
                  {
                     OFFSET -30.241313 0.093898 1.124376
                     CHANNELS 3 Zrotation Xrotation Yrotation
                     End Site
                     {
                        OFFSET -18.294322 -0.660000 1.653201
                     }
                  }
               }
            }
         }
      }
   }
   JOINT LeftUpLeg
   {
      OFFSET 9.840380 -9.533777 0.111817
      CHANNELS 3 Zrotation Xrotation Yrotation
      JOINT LeftLeg
      {
         OFFSET 0.000000 -48.864969 1.509970
         CHANNELS 3 Zrotation Xrotation Yrotation
         JOINT LeftFoot
         {
            OFFSET -0.278904 -46.301641 -1.606649
            CHANNELS 3 Zrotation Xrotation Yrotation
            JOINT LeftToes
            {
               OFFSET -0.044000 -4.856599 9.349010
               CHANNELS 3 Zrotation Xrotation Yrotation
               End Site
               {
                  OFFSET 0.088000 -0.052193 10.757769
               }
            }
         }
      }
   }
}
MOTION
Frames: 12
Frame Time: 0.016667
-7.40907 51.3243 -191.79 -14.1012 14.0583 -12.5561 -22.5516 -56.1339 -40.1519 -169.289 53.3131 174.343 51.7058 -25.2714 8.09949 0.0462049 0.000533403 0.662642 -6.16566 31.9969 1.86456 -0.00377466 -0.0159402 0.00371949 13.4217 24.936 27.7135 -3.18055e-015 -6.36111e-015 -8.74653e-015 168.646 -11.5924 161.667 -127.865 20.147 -0.356995 9.90617 40.6491 -8.39659 8.40999 1.2566 13.954 126.65 -12.3722 108.115 112.249 63.6439 19.433 -7.32553 22.8462 2.94903 179.537 -73.6488 145.637 103.589 66.0895 -94.6543 -14.5758 20.6722 -16.9933 -3.36952e-008 1.56033e-007 -4.88727e-009 
-5.85206 53.8869 -191.209 -13.5908 12.3882 -15.0064 -24.6797 -49.5115 -37.3515 -168.042 60.4872 176.708 54.6862 -21.8317 9.328 0.0462049 0.000533403 0.662642 -6.22112 32.3266 1.93853 -0.00377466 -0.0159402 0.00371949 12.5764 24.2905 28.4554 -8.82781e-032 -3.18055e-015 -1.59028e-015 168.533 -11.9753 162.202 -127.137 20.7826 -1.28185 9.44856 40.2647 -8.26078 7.90475 1.26891 14.4543 126.778 -12.101 108.019 110.869 62.9429 20.1889 -7.00537 23.2676 3.27832 169.691 -78.4879 135.911 107.047 69.434 -97.3626 -12.1603 16.3067 -15.463 -3.36952e-008 1.56033e-007 -4.88727e-009 
-4.14478 56.911 -190.11 -13.0018 10.7394 -17.3113 -25.3275 -43.1171 -33.6342 -165.969 68.6545 176.883 58.7222 -18.4007 9.9639 0.0462049 0.000533403 0.662642 -6.1674 31.9756 2.08821 -0.00377466 -0.0159402 0.00371949 11.7468 23.9851 28.8977 1.59028e-015 6.36111e-015 1.59028e-015 168.772 -12.6541 162.92 -126.308 21.44 -2.10366 8.97024 39.894 -8.01996 7.51213 1.54128 14.8831 126.831 -11.8122 108.018 109.372 62.1335 20.8809 -6.6488 23.7409 3.5176 139.13 -82.4951 104.314 109.118 74.2936 -98.5108 -13.7234 13.5044 -13.259 -3.36952e-008 1.56033e-007 -4.88727e-009 
-2.3596 60.3792 -188.549 -12.3464 9.1703 -19.4308 -25.1423 -36.8348 -29.3998 -160.686 77.6614 172.41 63.8898 -15.1848 10.2117 0.0462049 0.000533403 0.662642 -5.96958 31.0188 2.33864 -0.00377466 -0.0159402 0.00371949 10.9465 23.9493 29.0214 -0 -3.18055e-015 -0 172.877 -12.0326 165.586 -122.728 21.9994 -1.12597 8.56023 39.5353 -7.58198 7.25452 2.01338 15.2082 126.8 -11.5174 108.083 107.809 61.2793 21.4265 -6.3429 24.1534 3.73879 89.2055 -81.8985 53.561 110.418 79.9472 -99.4926 -14.3822 10.9849 -11.1099 -3.36952e-008 1.56033e-007 -4.88727e-009 
0.0700548 65.7694 -185.596 -11.6101 7.71775 -21.3516 -23.5388 -35.7675 -25.5572 -151.079 83.2416 154.663 44.7495 -13.098 7.10481 0.0462049 0.000533403 0.662642 -5.58262 29.5074 2.69912 -0.00377466 -0.0159402 0.00371949 10.1239 24.1545 28.813 3.18055e-015 6.36111e-015 -0 179.04 -10.0819 168.25 -120.868 24.6698 -1.10227 7.98525 36.7255 -2.65962 7.51049 2.55863 15.2448 127.96 -7.61891 109.302 106.073 58.3442 18.5817 -6.20946 24.6654 4.21654 58.4835 -76.1307 23.7532 100.217 86.431 -89.6066 -12.8933 8.11898 -8.96316 -3.36952e-008 1.56033e-007 -4.88727e-009 
2.43818 71.1387 -182.446 -10.8043 6.37603 -23.0943 -20.2609 -33.1115 -21.0791 -59.8015 87.3052 55.8994 25.3709 -12.9009 4.38743 0.0462049 0.000533403 0.662642 -5.02845 27.5792 3.17366 -0.00377466 -0.0159402 0.00371949 9.24316 24.5449 28.3477 1.59028e-015 0 3.18055e-015 -177.708 -9.37611 170.201 -120.202 26.4852 -0.763949 7.55992 34.7132 0.459708 7.8441 3.3077 15.1094 128.325 -5.57067 109.881 105.048 56.6273 16.7317 -6.06285 24.8225 4.18703 48.5153 -68.7199 15.4537 -43.3542 85.8581 51.9201 -9.77835 5.93115 -7.05961 -3.36952e-008 1.56033e-007 -4.88727e-009 
4.37361 75.8306 -179.396 -9.95017 5.14186 -24.696 -20.6084 -25.3928 -15.6432 -6.67395 77.5074 0.668216 36.1683 -11.4488 5.0642 0.0462049 0.000533403 0.662642 -4.40391 25.7508 3.66192 -0.00377466 -0.0159402 0.00371949 8.20806 24.7193 27.9326 -1.59028e-015 3.18055e-015 -0 -176.311 -9.30152 171.652 -120.219 27.7276 -0.406297 7.44241 33.681 1.71039 8.21636 3.87776 14.9316 128.198 -4.67228 109.973 104.423 55.7058 15.5537 -6.23832 25.0056 4.37135 45.3375 -61.2528 14.3989 -48.4851 79.9167 54.0175 -7.51455 4.45778 -5.76528 -3.36952e-008 1.56033e-007 -4.88727e-009 
6.11976 80.3072 -176.12 -9.0854 3.97537 -26.1797 -20.7506 -16.9973 -10.2658 -1.61981 66.2855 -7.71695 46.8423 -9.98367 6.24437 0.0462049 0.000533403 0.662642 -3.73348 24.0735 4.17502 -0.00377466 -0.0159402 0.00371949 6.99879 24.7286 27.5946 4.77083e-015 -3.18055e-015 6.36111e-015 -176.176 -9.74143 172.749 -120.686 28.5785 -0.130774 7.24318 32.7892 2.52123 8.57848 4.36529 14.6305 127.765 -4.44999 109.667 104.06 55.3047 14.8114 -6.36811 25.002 4.28829 43.5291 -54.287 15.0079 -49.4946 74.6303 51.5902 -5.49497 3.41895 -4.83994 -3.36952e-008 1.56033e-007 -4.88727e-009 
7.70137 84.2171 -172.706 -8.23586 2.88432 -27.5727 -21.179 -8.86739 -5.58723 -1.10661 54.8629 -12.4852 56.9313 -7.58536 6.47031 0.0462049 0.000533403 0.662642 -3.03093 22.5494 4.7284 -0.00377466 -0.0159402 0.00371949 5.60794 24.6303 27.359 -4.77083e-015 3.18055e-015 3.18055e-015 -176.949 -10.5958 173.554 -121.483 29.1261 -0.00104924 7.27219 32.2177 2.5452 8.87076 4.85241 14.1537 127.181 -4.59085 109.04 103.885 55.2267 14.3585 -6.66967 25.0416 4.28757 43.6218 -47.1206 16.1253 -49.4421 70.239 46.3293 -14.2794 3.92237 -4.71517 -3.36952e-008 1.56033e-007 -4.88727e-009 
9.45774 88.7367 -168.67 -7.43491 1.8721 -28.8842 -18.6735 -6.95525 -1.55566 -2.08377 51.5901 -16.6073 37.2389 -8.23636 3.89837 0.0462049 0.000533403 0.662642 -2.30634 21.1905 5.31702 -0.00377466 -0.0159402 0.00371949 4.04188 24.4743 27.2475 0 3.18055e-015 -0 -178.421 -11.7701 174.108 -122.53 29.4213 -0.0230449 7.30954 31.6054 2.56878 9.04563 5.39716 13.4874 126.564 -4.90781 108.165 103.865 55.3295 14.0839 -6.89259 25.0348 4.04641 41.3745 -38.9902 16.223 -43.3926 64.5837 35.7131 -23.2187 4.93914 -3.70056 -3.36952e-008 1.56033e-007 -4.88727e-009 
10.8391 92.2035 -165.043 -6.71081 0.948973 -30.1086 -16.0959 -5.07984 1.71487 -0.382296 47.5091 -19.7701 14.4095 -7.73569 -0.00721191 0.0462049 0.000533403 0.662642 -1.57235 20.0053 5.92232 -0.00377466 -0.0159402 0.00371949 2.32171 24.2964 27.276 3.53113e-031 3.18055e-015 -6.36111e-015 179.546 -13.1749 174.441 -123.749 29.5011 -0.181143 7.51172 31.1267 2.28581 9.08943 6.02562 12.6452 125.982 -5.29947 107.112 103.966 55.5078 13.9193 -7.18219 25.1192 3.79005 39.1755 -31.5484 16.566 -37.7812 58.8342 26.1813 -33.0805 6.26799 -2.31897 -3.36952e-008 1.56033e-007 -4.88727e-009 
11.8199 94.0551 -162.111 -6.07499 0.0523503 -31.2479 -20.3018 0.568034 4.8672 3.30458 40.1882 -18.4123 39.9349 -4.92019 2.34961 0.0462049 0.000533403 0.662642 -0.900448 19.0606 6.52461 -0.00377466 -0.0159402 0.00371949 0.466647 24.1246 27.4555 1.59028e-015 0 3.18055e-015 176.953 -14.7134 174.596 -125.043 29.3694 -0.430292 7.94707 30.4216 2.18089 9.02376 6.82453 11.6257 125.484 -5.68786 105.97 104.104 55.6772 13.8376 -7.57784 25.1909 3.28928 37.5845 -25.55 17.1174 -33.9946 54.1174 19.318 -43.7454 7.26117 -0.919157 -3.36952e-008 1.56033e-007 -4.88727e-009 
